<mxfile host="app.diagrams.net" modified="2023-08-21T15:53:27.018Z" agent="Mozilla/5.0 (Macintosh; Intel Mac OS X 10_15_7) AppleWebKit/537.36 (KHTML, like Gecko) Chrome/115.0.0.0 Safari/537.36" etag="jXJWer7Skn4BAtUihUsn" version="21.6.5" type="github" pages="4">
  <diagram id="C5RBs43oDa-KdzZeNtuy" name="로그인화면 Navigation">
    <mxGraphModel dx="1242" dy="1991" grid="1" gridSize="10" guides="1" tooltips="1" connect="1" arrows="1" fold="1" page="1" pageScale="1" pageWidth="827" pageHeight="1169" math="0" shadow="0">
      <root>
        <mxCell id="WIyWlLk6GJQsqaUBKTNV-0" />
        <mxCell id="WIyWlLk6GJQsqaUBKTNV-1" parent="WIyWlLk6GJQsqaUBKTNV-0" />
        <mxCell id="YZ1DASDXdoZ81Dy0Z4KV-26" style="edgeStyle=orthogonalEdgeStyle;rounded=0;orthogonalLoop=1;jettySize=auto;html=1;entryX=0;entryY=0.5;entryDx=0;entryDy=0;" parent="WIyWlLk6GJQsqaUBKTNV-1" source="YZ1DASDXdoZ81Dy0Z4KV-0" target="YZ1DASDXdoZ81Dy0Z4KV-6" edge="1">
          <mxGeometry relative="1" as="geometry" />
        </mxCell>
        <mxCell id="YZ1DASDXdoZ81Dy0Z4KV-27" style="edgeStyle=orthogonalEdgeStyle;rounded=0;orthogonalLoop=1;jettySize=auto;html=1;entryX=0;entryY=0.5;entryDx=0;entryDy=0;" parent="WIyWlLk6GJQsqaUBKTNV-1" source="YZ1DASDXdoZ81Dy0Z4KV-0" target="YZ1DASDXdoZ81Dy0Z4KV-4" edge="1">
          <mxGeometry relative="1" as="geometry" />
        </mxCell>
        <mxCell id="YZ1DASDXdoZ81Dy0Z4KV-28" style="edgeStyle=orthogonalEdgeStyle;rounded=0;orthogonalLoop=1;jettySize=auto;html=1;entryX=0;entryY=0.75;entryDx=0;entryDy=0;" parent="WIyWlLk6GJQsqaUBKTNV-1" source="YZ1DASDXdoZ81Dy0Z4KV-0" target="YZ1DASDXdoZ81Dy0Z4KV-2" edge="1">
          <mxGeometry relative="1" as="geometry" />
        </mxCell>
        <mxCell id="YZ1DASDXdoZ81Dy0Z4KV-29" style="edgeStyle=orthogonalEdgeStyle;rounded=0;orthogonalLoop=1;jettySize=auto;html=1;entryX=0;entryY=0.75;entryDx=0;entryDy=0;" parent="WIyWlLk6GJQsqaUBKTNV-1" source="YZ1DASDXdoZ81Dy0Z4KV-0" target="YZ1DASDXdoZ81Dy0Z4KV-8" edge="1">
          <mxGeometry relative="1" as="geometry" />
        </mxCell>
        <mxCell id="YZ1DASDXdoZ81Dy0Z4KV-30" style="edgeStyle=orthogonalEdgeStyle;rounded=0;orthogonalLoop=1;jettySize=auto;html=1;entryX=0;entryY=0.75;entryDx=0;entryDy=0;" parent="WIyWlLk6GJQsqaUBKTNV-1" source="YZ1DASDXdoZ81Dy0Z4KV-0" target="YZ1DASDXdoZ81Dy0Z4KV-10" edge="1">
          <mxGeometry relative="1" as="geometry" />
        </mxCell>
        <mxCell id="YZ1DASDXdoZ81Dy0Z4KV-31" style="edgeStyle=orthogonalEdgeStyle;rounded=0;orthogonalLoop=1;jettySize=auto;html=1;entryX=0;entryY=0.5;entryDx=0;entryDy=0;" parent="WIyWlLk6GJQsqaUBKTNV-1" source="YZ1DASDXdoZ81Dy0Z4KV-0" target="YZ1DASDXdoZ81Dy0Z4KV-18" edge="1">
          <mxGeometry relative="1" as="geometry" />
        </mxCell>
        <mxCell id="YZ1DASDXdoZ81Dy0Z4KV-0" value="SignInView" style="swimlane;whiteSpace=wrap;html=1;" parent="WIyWlLk6GJQsqaUBKTNV-1" vertex="1">
          <mxGeometry x="60" y="370" width="200" height="70" as="geometry" />
        </mxCell>
        <mxCell id="YZ1DASDXdoZ81Dy0Z4KV-46" style="edgeStyle=orthogonalEdgeStyle;rounded=0;orthogonalLoop=1;jettySize=auto;html=1;entryX=0.885;entryY=-0.043;entryDx=0;entryDy=0;entryPerimeter=0;dashed=1;" parent="WIyWlLk6GJQsqaUBKTNV-1" source="YZ1DASDXdoZ81Dy0Z4KV-2" target="YZ1DASDXdoZ81Dy0Z4KV-0" edge="1">
          <mxGeometry relative="1" as="geometry" />
        </mxCell>
        <mxCell id="YZ1DASDXdoZ81Dy0Z4KV-2" value="AccountListView" style="swimlane;whiteSpace=wrap;html=1;" parent="WIyWlLk6GJQsqaUBKTNV-1" vertex="1">
          <mxGeometry x="377" y="8" width="200" height="60" as="geometry" />
        </mxCell>
        <mxCell id="YZ1DASDXdoZ81Dy0Z4KV-3" value="계정안내" style="text;html=1;align=center;verticalAlign=middle;resizable=0;points=[];autosize=1;strokeColor=none;fillColor=none;" parent="YZ1DASDXdoZ81Dy0Z4KV-2" vertex="1">
          <mxGeometry x="69" y="30" width="70" height="30" as="geometry" />
        </mxCell>
        <mxCell id="YZ1DASDXdoZ81Dy0Z4KV-32" style="edgeStyle=orthogonalEdgeStyle;rounded=0;orthogonalLoop=1;jettySize=auto;html=1;entryX=0;entryY=0.5;entryDx=0;entryDy=0;" parent="WIyWlLk6GJQsqaUBKTNV-1" source="YZ1DASDXdoZ81Dy0Z4KV-4" target="YZ1DASDXdoZ81Dy0Z4KV-16" edge="1">
          <mxGeometry relative="1" as="geometry" />
        </mxCell>
        <mxCell id="YZ1DASDXdoZ81Dy0Z4KV-4" value="PasswordView" style="swimlane;whiteSpace=wrap;html=1;" parent="WIyWlLk6GJQsqaUBKTNV-1" vertex="1">
          <mxGeometry x="380" y="150" width="200" height="70" as="geometry" />
        </mxCell>
        <mxCell id="YZ1DASDXdoZ81Dy0Z4KV-5" value="이메일로 로그인" style="text;html=1;align=center;verticalAlign=middle;resizable=0;points=[];autosize=1;strokeColor=none;fillColor=none;" parent="YZ1DASDXdoZ81Dy0Z4KV-4" vertex="1">
          <mxGeometry x="54" y="30" width="100" height="30" as="geometry" />
        </mxCell>
        <mxCell id="YZ1DASDXdoZ81Dy0Z4KV-6" value="EmailSignUpView" style="swimlane;whiteSpace=wrap;html=1;" parent="WIyWlLk6GJQsqaUBKTNV-1" vertex="1">
          <mxGeometry x="380" y="290" width="200" height="70" as="geometry" />
        </mxCell>
        <mxCell id="YZ1DASDXdoZ81Dy0Z4KV-7" value="회원가입" style="text;html=1;align=center;verticalAlign=middle;resizable=0;points=[];autosize=1;strokeColor=none;fillColor=none;" parent="YZ1DASDXdoZ81Dy0Z4KV-6" vertex="1">
          <mxGeometry x="69" y="30" width="70" height="30" as="geometry" />
        </mxCell>
        <mxCell id="YZ1DASDXdoZ81Dy0Z4KV-45" style="edgeStyle=orthogonalEdgeStyle;rounded=0;orthogonalLoop=1;jettySize=auto;html=1;dashed=1;" parent="WIyWlLk6GJQsqaUBKTNV-1" source="YZ1DASDXdoZ81Dy0Z4KV-8" edge="1">
          <mxGeometry relative="1" as="geometry">
            <mxPoint x="200" y="440" as="targetPoint" />
            <Array as="points">
              <mxPoint x="480" y="500" />
              <mxPoint x="200" y="500" />
            </Array>
          </mxGeometry>
        </mxCell>
        <mxCell id="YZ1DASDXdoZ81Dy0Z4KV-8" value="ThridPartySignUpView" style="swimlane;whiteSpace=wrap;html=1;" parent="WIyWlLk6GJQsqaUBKTNV-1" vertex="1">
          <mxGeometry x="380" y="410" width="200" height="70" as="geometry" />
        </mxCell>
        <mxCell id="YZ1DASDXdoZ81Dy0Z4KV-9" value="회원가입" style="text;html=1;align=center;verticalAlign=middle;resizable=0;points=[];autosize=1;strokeColor=none;fillColor=none;" parent="YZ1DASDXdoZ81Dy0Z4KV-8" vertex="1">
          <mxGeometry x="69" y="30" width="70" height="30" as="geometry" />
        </mxCell>
        <mxCell id="YZ1DASDXdoZ81Dy0Z4KV-34" style="edgeStyle=orthogonalEdgeStyle;rounded=0;orthogonalLoop=1;jettySize=auto;html=1;entryX=1;entryY=0.5;entryDx=0;entryDy=0;" parent="WIyWlLk6GJQsqaUBKTNV-1" source="YZ1DASDXdoZ81Dy0Z4KV-10" target="YZ1DASDXdoZ81Dy0Z4KV-22" edge="1">
          <mxGeometry relative="1" as="geometry">
            <Array as="points">
              <mxPoint x="634" y="570" />
              <mxPoint x="634" y="93" />
            </Array>
          </mxGeometry>
        </mxCell>
        <mxCell id="YZ1DASDXdoZ81Dy0Z4KV-10" value="EmailFindView" style="swimlane;whiteSpace=wrap;html=1;" parent="WIyWlLk6GJQsqaUBKTNV-1" vertex="1">
          <mxGeometry x="380" y="540" width="200" height="70" as="geometry" />
        </mxCell>
        <mxCell id="YZ1DASDXdoZ81Dy0Z4KV-11" value="계정 찾기" style="text;html=1;align=center;verticalAlign=middle;resizable=0;points=[];autosize=1;strokeColor=none;fillColor=none;" parent="YZ1DASDXdoZ81Dy0Z4KV-10" vertex="1">
          <mxGeometry x="69" y="30" width="70" height="30" as="geometry" />
        </mxCell>
        <mxCell id="YZ1DASDXdoZ81Dy0Z4KV-43" style="edgeStyle=orthogonalEdgeStyle;rounded=0;orthogonalLoop=1;jettySize=auto;html=1;entryX=0.25;entryY=1;entryDx=0;entryDy=0;dashed=1;" parent="WIyWlLk6GJQsqaUBKTNV-1" source="YZ1DASDXdoZ81Dy0Z4KV-14" target="YZ1DASDXdoZ81Dy0Z4KV-0" edge="1">
          <mxGeometry relative="1" as="geometry">
            <mxPoint x="110" y="450" as="targetPoint" />
            <Array as="points">
              <mxPoint x="820" y="780" />
              <mxPoint x="110" y="780" />
            </Array>
          </mxGeometry>
        </mxCell>
        <mxCell id="YZ1DASDXdoZ81Dy0Z4KV-14" value="PasswordLinkEmailView" style="swimlane;whiteSpace=wrap;html=1;" parent="WIyWlLk6GJQsqaUBKTNV-1" vertex="1">
          <mxGeometry x="720" y="670" width="200" height="70" as="geometry" />
        </mxCell>
        <mxCell id="YZ1DASDXdoZ81Dy0Z4KV-15" value="계정 연결&amp;nbsp;" style="text;html=1;align=center;verticalAlign=middle;resizable=0;points=[];autosize=1;strokeColor=none;fillColor=none;" parent="YZ1DASDXdoZ81Dy0Z4KV-14" vertex="1">
          <mxGeometry x="69" y="30" width="70" height="30" as="geometry" />
        </mxCell>
        <mxCell id="YZ1DASDXdoZ81Dy0Z4KV-44" style="edgeStyle=orthogonalEdgeStyle;rounded=0;orthogonalLoop=1;jettySize=auto;html=1;entryX=0.75;entryY=0;entryDx=0;entryDy=0;dashed=1;" parent="WIyWlLk6GJQsqaUBKTNV-1" source="YZ1DASDXdoZ81Dy0Z4KV-16" target="YZ1DASDXdoZ81Dy0Z4KV-0" edge="1">
          <mxGeometry relative="1" as="geometry">
            <Array as="points">
              <mxPoint x="810" y="-50" />
              <mxPoint x="210" y="-50" />
            </Array>
          </mxGeometry>
        </mxCell>
        <mxCell id="YZ1DASDXdoZ81Dy0Z4KV-16" value="ResetPasswordView" style="swimlane;whiteSpace=wrap;html=1;" parent="WIyWlLk6GJQsqaUBKTNV-1" vertex="1">
          <mxGeometry x="710" y="150" width="200" height="70" as="geometry" />
        </mxCell>
        <mxCell id="YZ1DASDXdoZ81Dy0Z4KV-17" value="비밀번호 재설정" style="text;html=1;align=center;verticalAlign=middle;resizable=0;points=[];autosize=1;strokeColor=none;fillColor=none;" parent="YZ1DASDXdoZ81Dy0Z4KV-16" vertex="1">
          <mxGeometry x="54" y="30" width="100" height="30" as="geometry" />
        </mxCell>
        <mxCell id="YZ1DASDXdoZ81Dy0Z4KV-33" style="edgeStyle=orthogonalEdgeStyle;rounded=0;orthogonalLoop=1;jettySize=auto;html=1;entryX=0;entryY=0.5;entryDx=0;entryDy=0;" parent="WIyWlLk6GJQsqaUBKTNV-1" source="YZ1DASDXdoZ81Dy0Z4KV-18" target="YZ1DASDXdoZ81Dy0Z4KV-14" edge="1">
          <mxGeometry relative="1" as="geometry" />
        </mxCell>
        <mxCell id="YZ1DASDXdoZ81Dy0Z4KV-35" style="edgeStyle=orthogonalEdgeStyle;rounded=0;orthogonalLoop=1;jettySize=auto;html=1;entryX=0.5;entryY=1;entryDx=0;entryDy=0;dashed=1;exitX=0;exitY=0.75;exitDx=0;exitDy=0;" parent="WIyWlLk6GJQsqaUBKTNV-1" source="YZ1DASDXdoZ81Dy0Z4KV-18" target="YZ1DASDXdoZ81Dy0Z4KV-0" edge="1">
          <mxGeometry relative="1" as="geometry" />
        </mxCell>
        <mxCell id="YZ1DASDXdoZ81Dy0Z4KV-18" value="PasswordLinkView" style="swimlane;whiteSpace=wrap;html=1;" parent="WIyWlLk6GJQsqaUBKTNV-1" vertex="1">
          <mxGeometry x="380" y="670" width="200" height="70" as="geometry" />
        </mxCell>
        <mxCell id="YZ1DASDXdoZ81Dy0Z4KV-19" value="계정 연결" style="text;html=1;align=center;verticalAlign=middle;resizable=0;points=[];autosize=1;strokeColor=none;fillColor=none;" parent="YZ1DASDXdoZ81Dy0Z4KV-18" vertex="1">
          <mxGeometry x="69" y="30" width="70" height="30" as="geometry" />
        </mxCell>
        <mxCell id="YZ1DASDXdoZ81Dy0Z4KV-21" value="로그인" style="text;html=1;align=center;verticalAlign=middle;resizable=0;points=[];autosize=1;strokeColor=none;fillColor=none;" parent="WIyWlLk6GJQsqaUBKTNV-1" vertex="1">
          <mxGeometry x="125" y="405" width="50" height="30" as="geometry" />
        </mxCell>
        <mxCell id="YZ1DASDXdoZ81Dy0Z4KV-47" style="edgeStyle=orthogonalEdgeStyle;rounded=0;orthogonalLoop=1;jettySize=auto;html=1;entryX=0.955;entryY=-0.014;entryDx=0;entryDy=0;entryPerimeter=0;dashed=1;" parent="WIyWlLk6GJQsqaUBKTNV-1" source="YZ1DASDXdoZ81Dy0Z4KV-22" target="YZ1DASDXdoZ81Dy0Z4KV-0" edge="1">
          <mxGeometry relative="1" as="geometry" />
        </mxCell>
        <mxCell id="YZ1DASDXdoZ81Dy0Z4KV-22" value="AccountListView" style="swimlane;whiteSpace=wrap;html=1;" parent="WIyWlLk6GJQsqaUBKTNV-1" vertex="1">
          <mxGeometry x="414" y="58" width="200" height="70" as="geometry" />
        </mxCell>
        <mxCell id="YZ1DASDXdoZ81Dy0Z4KV-23" value="계정 찾기" style="text;html=1;align=center;verticalAlign=middle;resizable=0;points=[];autosize=1;strokeColor=none;fillColor=none;" parent="YZ1DASDXdoZ81Dy0Z4KV-22" vertex="1">
          <mxGeometry x="69" y="30" width="70" height="30" as="geometry" />
        </mxCell>
        <mxCell id="YZ1DASDXdoZ81Dy0Z4KV-40" value="" style="shape=callout;whiteSpace=wrap;html=1;perimeter=calloutPerimeter;" parent="WIyWlLk6GJQsqaUBKTNV-1" vertex="1">
          <mxGeometry x="10" y="80" width="180" height="230" as="geometry" />
        </mxCell>
        <mxCell id="YZ1DASDXdoZ81Dy0Z4KV-38" value="" style="endArrow=classic;html=1;rounded=0;" parent="WIyWlLk6GJQsqaUBKTNV-1" edge="1">
          <mxGeometry relative="1" as="geometry">
            <mxPoint x="20" y="210" as="sourcePoint" />
            <mxPoint x="120" y="210" as="targetPoint" />
          </mxGeometry>
        </mxCell>
        <mxCell id="YZ1DASDXdoZ81Dy0Z4KV-39" value="push" style="edgeLabel;resizable=0;html=1;align=center;verticalAlign=middle;" parent="YZ1DASDXdoZ81Dy0Z4KV-38" connectable="0" vertex="1">
          <mxGeometry relative="1" as="geometry">
            <mxPoint y="-15" as="offset" />
          </mxGeometry>
        </mxCell>
        <mxCell id="YZ1DASDXdoZ81Dy0Z4KV-41" value="" style="endArrow=classic;html=1;rounded=0;dashed=1;" parent="WIyWlLk6GJQsqaUBKTNV-1" edge="1">
          <mxGeometry relative="1" as="geometry">
            <mxPoint x="21" y="251" as="sourcePoint" />
            <mxPoint x="121" y="251" as="targetPoint" />
          </mxGeometry>
        </mxCell>
        <mxCell id="YZ1DASDXdoZ81Dy0Z4KV-42" value="pop" style="edgeLabel;resizable=0;html=1;align=center;verticalAlign=middle;" parent="YZ1DASDXdoZ81Dy0Z4KV-41" connectable="0" vertex="1">
          <mxGeometry relative="1" as="geometry">
            <mxPoint y="-15" as="offset" />
          </mxGeometry>
        </mxCell>
        <mxCell id="YZ1DASDXdoZ81Dy0Z4KV-49" value="{View 이름 }" style="swimlane;whiteSpace=wrap;html=1;" parent="WIyWlLk6GJQsqaUBKTNV-1" vertex="1">
          <mxGeometry x="20" y="110" width="140" height="60" as="geometry" />
        </mxCell>
        <mxCell id="YZ1DASDXdoZ81Dy0Z4KV-50" value="{네비게이션 타이틀}" style="text;html=1;align=center;verticalAlign=middle;resizable=0;points=[];autosize=1;strokeColor=none;fillColor=none;" parent="YZ1DASDXdoZ81Dy0Z4KV-49" vertex="1">
          <mxGeometry x="10" y="30" width="120" height="30" as="geometry" />
        </mxCell>
      </root>
    </mxGraphModel>
  </diagram>
  <diagram id="uZEbM6Gc0K0EipfGXr5v" name="Builder Container ">
    <mxGraphModel dx="3932" dy="2155" grid="1" gridSize="10" guides="1" tooltips="1" connect="1" arrows="1" fold="1" page="1" pageScale="1" pageWidth="827" pageHeight="1169" math="0" shadow="0">
      <root>
        <mxCell id="0" />
        <mxCell id="1" parent="0" />
        <mxCell id="vI79QU8obV0aJLRX0Krz-4" value="" style="rounded=1;whiteSpace=wrap;html=1;" vertex="1" parent="1">
          <mxGeometry x="-310" y="665" width="1930" height="475" as="geometry" />
        </mxCell>
        <mxCell id="h-jJvfHTX61WG-e6yDjH-1" value="&lt;p style=&quot;margin:0px;margin-top:4px;text-align:center;&quot;&gt;&lt;i&gt;&amp;lt;&amp;lt;protocol&amp;gt;&amp;gt;&lt;/i&gt;&lt;br&gt;&lt;b&gt;NavigationBuilderContainable&lt;/b&gt;&lt;/p&gt;&lt;hr size=&quot;1&quot;&gt;&lt;p style=&quot;margin:0px;margin-left:4px;&quot;&gt;+ vertex: PassthroughSubject&amp;lt;ViewKind, Never&amp;gt;&lt;br&gt;&lt;/p&gt;&lt;hr size=&quot;1&quot;&gt;&lt;p style=&quot;margin:0px;margin-left:4px;&quot;&gt;+ push(ViewKind)&lt;br style=&quot;border-color: var(--border-color);&quot;&gt;+ popToRootView()&lt;br&gt;&lt;/p&gt;" style="verticalAlign=top;align=left;overflow=fill;fontSize=12;fontFamily=Helvetica;html=1;whiteSpace=wrap;" parent="1" vertex="1">
          <mxGeometry x="210" y="360" width="300" height="140" as="geometry" />
        </mxCell>
        <mxCell id="h-jJvfHTX61WG-e6yDjH-7" style="edgeStyle=orthogonalEdgeStyle;rounded=0;orthogonalLoop=1;jettySize=auto;html=1;entryX=0.5;entryY=1;entryDx=0;entryDy=0;endArrow=block;endFill=0;" parent="1" source="h-jJvfHTX61WG-e6yDjH-6" target="h-jJvfHTX61WG-e6yDjH-1" edge="1">
          <mxGeometry relative="1" as="geometry" />
        </mxCell>
        <mxCell id="vI79QU8obV0aJLRX0Krz-5" style="edgeStyle=orthogonalEdgeStyle;rounded=0;orthogonalLoop=1;jettySize=auto;html=1;endArrow=block;endFill=0;" edge="1" parent="1" source="h-jJvfHTX61WG-e6yDjH-6">
          <mxGeometry relative="1" as="geometry">
            <mxPoint x="1310" y="660" as="targetPoint" />
          </mxGeometry>
        </mxCell>
        <mxCell id="h-jJvfHTX61WG-e6yDjH-6" value="&lt;p style=&quot;margin:0px;margin-top:4px;text-align:center;&quot;&gt;&lt;i&gt;&amp;lt;&amp;lt;protocol&amp;gt;&amp;gt;&lt;/i&gt;&lt;br&gt;&lt;b&gt;SignInNavigationBuilderContainable&lt;/b&gt;&lt;/p&gt;&lt;hr size=&quot;1&quot;&gt;&lt;p style=&quot;margin:0px;margin-left:4px;&quot;&gt;+ accountListBuilder: AccountListBuildingLogic&lt;/p&gt;&amp;nbsp;+ passwordBuilder: PasswordBuildingLogic&lt;br&gt;&amp;nbsp;+ passwordLinkBuilder: PasswordLinkBuildingLogic&lt;br&gt;&amp;nbsp;+ emailSignUpBuilder: EmailSignUpBuildingLogic&lt;br&gt;&amp;nbsp;+ thirdPartySignUpBuilder: ThirdPartySignUpBuildingLogic&lt;br&gt;&amp;nbsp;+ emailFindBuilder: EmailFindBuildingLogic&lt;br&gt;&lt;hr size=&quot;1&quot;&gt;&lt;p style=&quot;margin:0px;margin-left:4px;&quot;&gt;&lt;br&gt;&lt;/p&gt;" style="verticalAlign=top;align=left;overflow=fill;fontSize=12;fontFamily=Helvetica;html=1;whiteSpace=wrap;" parent="1" vertex="1">
          <mxGeometry x="1425" y="500" width="330" height="140" as="geometry" />
        </mxCell>
        <mxCell id="h-jJvfHTX61WG-e6yDjH-45" style="edgeStyle=orthogonalEdgeStyle;rounded=0;orthogonalLoop=1;jettySize=auto;html=1;entryX=0;entryY=0.25;entryDx=0;entryDy=0;dashed=1;endArrow=block;endFill=0;" parent="1" source="h-jJvfHTX61WG-e6yDjH-9" target="h-jJvfHTX61WG-e6yDjH-6" edge="1">
          <mxGeometry relative="1" as="geometry">
            <Array as="points">
              <mxPoint x="1260" y="535" />
            </Array>
          </mxGeometry>
        </mxCell>
        <mxCell id="h-jJvfHTX61WG-e6yDjH-9" value="&lt;p style=&quot;margin: 0px; font-variant-numeric: normal; font-variant-east-asian: normal; font-variant-alternates: normal; font-kerning: auto; font-optical-sizing: auto; font-feature-settings: normal; font-variation-settings: normal; font-stretch: normal; font-size: 13px; line-height: normal; font-family: &amp;quot;Helvetica Neue&amp;quot;;&quot; class=&quot;p1&quot;&gt;&lt;b&gt;SignInNavigationBuilderContainer&lt;/b&gt;&lt;/p&gt;&lt;hr size=&quot;1&quot;&gt;&lt;p style=&quot;margin:0px;margin-left:4px;&quot;&gt;&lt;br&gt;&lt;/p&gt;&lt;hr size=&quot;1&quot;&gt;&lt;p style=&quot;margin:0px;margin-left:4px;&quot;&gt;&lt;br&gt;&lt;/p&gt;" style="verticalAlign=top;align=center;overflow=fill;fontSize=12;fontFamily=Helvetica;html=1;whiteSpace=wrap;" parent="1" vertex="1">
          <mxGeometry x="1150" y="250" width="240" height="90" as="geometry" />
        </mxCell>
        <mxCell id="h-jJvfHTX61WG-e6yDjH-39" style="edgeStyle=orthogonalEdgeStyle;rounded=0;orthogonalLoop=1;jettySize=auto;html=1;entryX=0.25;entryY=1;entryDx=0;entryDy=0;endArrow=block;endFill=0;" parent="1" source="h-jJvfHTX61WG-e6yDjH-11" target="h-jJvfHTX61WG-e6yDjH-1" edge="1">
          <mxGeometry relative="1" as="geometry">
            <mxPoint x="280" y="530" as="targetPoint" />
            <Array as="points">
              <mxPoint x="290" y="1040" />
              <mxPoint x="290" y="735" />
              <mxPoint x="285" y="735" />
            </Array>
          </mxGeometry>
        </mxCell>
        <mxCell id="h-jJvfHTX61WG-e6yDjH-40" style="edgeStyle=orthogonalEdgeStyle;rounded=0;orthogonalLoop=1;jettySize=auto;html=1;entryX=0.478;entryY=1.021;entryDx=0;entryDy=0;entryPerimeter=0;endArrow=block;endFill=0;" parent="1" source="h-jJvfHTX61WG-e6yDjH-11" target="h-jJvfHTX61WG-e6yDjH-12" edge="1">
          <mxGeometry relative="1" as="geometry" />
        </mxCell>
        <mxCell id="h-jJvfHTX61WG-e6yDjH-11" value="&lt;p style=&quot;margin:0px;margin-top:4px;text-align:center;&quot;&gt;&lt;i&gt;&amp;lt;&amp;lt;protocol&amp;gt;&amp;gt;&lt;/i&gt;&lt;br&gt;&lt;/p&gt;&lt;p style=&quot;margin: 0px; font-variant-numeric: normal; font-variant-east-asian: normal; font-variant-alternates: normal; font-kerning: auto; font-optical-sizing: auto; font-feature-settings: normal; font-variation-settings: normal; font-stretch: normal; font-size: 13px; line-height: normal; font-family: &amp;quot;Helvetica Neue&amp;quot;;&quot; class=&quot;p1&quot;&gt;&amp;nbsp;EmailFindNavigatonBuilderContainable&lt;/p&gt;&lt;hr size=&quot;1&quot;&gt;&lt;p style=&quot;margin:0px;margin-left:4px;&quot;&gt;+&amp;nbsp;accountListBuilder: AccountListBuildingLogic&lt;br&gt;&lt;/p&gt;&lt;hr size=&quot;1&quot;&gt;&lt;p style=&quot;margin:0px;margin-left:4px;&quot;&gt;&lt;br&gt;&lt;/p&gt;" style="verticalAlign=top;align=left;overflow=fill;fontSize=12;fontFamily=Helvetica;html=1;whiteSpace=wrap;" parent="1" vertex="1">
          <mxGeometry x="330" y="970" width="260" height="140" as="geometry" />
        </mxCell>
        <mxCell id="h-jJvfHTX61WG-e6yDjH-26" style="edgeStyle=orthogonalEdgeStyle;rounded=0;orthogonalLoop=1;jettySize=auto;html=1;endArrow=block;endFill=0;" parent="1" source="h-jJvfHTX61WG-e6yDjH-12" edge="1">
          <mxGeometry relative="1" as="geometry">
            <mxPoint x="440" y="500" as="targetPoint" />
            <Array as="points">
              <mxPoint x="440" y="520" />
              <mxPoint x="440" y="520" />
            </Array>
          </mxGeometry>
        </mxCell>
        <mxCell id="h-jJvfHTX61WG-e6yDjH-12" value="&lt;p style=&quot;margin:0px;margin-top:4px;text-align:center;&quot;&gt;&lt;i&gt;&amp;lt;&amp;lt;protocol&amp;gt;&amp;gt;&lt;/i&gt;&lt;br&gt;&lt;/p&gt;&lt;p style=&quot;margin: 0px; font-variant-numeric: normal; font-variant-east-asian: normal; font-variant-alternates: normal; font-kerning: auto; font-optical-sizing: auto; font-feature-settings: normal; font-variation-settings: normal; font-stretch: normal; font-size: 13px; line-height: normal; font-family: &amp;quot;Helvetica Neue&amp;quot;;&quot; class=&quot;p1&quot;&gt;AccountListNavigationBuilderContainable&lt;/p&gt;&lt;hr size=&quot;1&quot;&gt;&lt;p style=&quot;margin:0px;margin-left:4px;&quot;&gt;&lt;br&gt;&lt;/p&gt;&lt;hr size=&quot;1&quot;&gt;&lt;p style=&quot;margin:0px;margin-left:4px;&quot;&gt;&lt;br&gt;&lt;/p&gt;" style="verticalAlign=top;align=left;overflow=fill;fontSize=12;fontFamily=Helvetica;html=1;whiteSpace=wrap;" parent="1" vertex="1">
          <mxGeometry x="330" y="750" width="270" height="140" as="geometry" />
        </mxCell>
        <mxCell id="h-jJvfHTX61WG-e6yDjH-18" style="edgeStyle=orthogonalEdgeStyle;rounded=0;orthogonalLoop=1;jettySize=auto;html=1;entryX=0;entryY=0.429;entryDx=0;entryDy=0;entryPerimeter=0;endArrow=block;endFill=0;" parent="1" source="h-jJvfHTX61WG-e6yDjH-13" target="h-jJvfHTX61WG-e6yDjH-1" edge="1">
          <mxGeometry relative="1" as="geometry" />
        </mxCell>
        <mxCell id="h-jJvfHTX61WG-e6yDjH-19" style="edgeStyle=orthogonalEdgeStyle;rounded=0;orthogonalLoop=1;jettySize=auto;html=1;endArrow=block;endFill=0;" parent="1" source="h-jJvfHTX61WG-e6yDjH-13" target="h-jJvfHTX61WG-e6yDjH-15" edge="1">
          <mxGeometry relative="1" as="geometry">
            <Array as="points">
              <mxPoint x="-40" y="1040" />
            </Array>
          </mxGeometry>
        </mxCell>
        <mxCell id="h-jJvfHTX61WG-e6yDjH-13" value="&lt;p style=&quot;margin:0px;margin-top:4px;text-align:center;&quot;&gt;&lt;i&gt;&amp;lt;&amp;lt;protocol&amp;gt;&amp;gt;&lt;/i&gt;&lt;br&gt;&lt;/p&gt;&lt;p style=&quot;margin: 0px; font-variant-numeric: normal; font-variant-east-asian: normal; font-variant-alternates: normal; font-kerning: auto; font-optical-sizing: auto; font-feature-settings: normal; font-variation-settings: normal; font-stretch: normal; font-size: 13px; line-height: normal; font-family: &amp;quot;Helvetica Neue&amp;quot;;&quot; class=&quot;p1&quot;&gt;&amp;nbsp;PasswordNavigationBuilderContainable&lt;/p&gt;&lt;hr size=&quot;1&quot;&gt;&lt;p style=&quot;margin:0px;margin-left:4px;&quot;&gt;+&amp;nbsp;resetPasswordBuilder: ResetPasswordBuildingLogic&lt;br&gt;&lt;/p&gt;&lt;hr size=&quot;1&quot;&gt;&lt;p style=&quot;margin:0px;margin-left:4px;&quot;&gt;&lt;br&gt;&lt;/p&gt;" style="verticalAlign=top;align=left;overflow=fill;fontSize=12;fontFamily=Helvetica;html=1;whiteSpace=wrap;" parent="1" vertex="1">
          <mxGeometry y="970" width="260" height="140" as="geometry" />
        </mxCell>
        <mxCell id="h-jJvfHTX61WG-e6yDjH-22" style="edgeStyle=orthogonalEdgeStyle;rounded=0;orthogonalLoop=1;jettySize=auto;html=1;entryX=1;entryY=0.5;entryDx=0;entryDy=0;endArrow=block;endFill=0;" parent="1" source="h-jJvfHTX61WG-e6yDjH-14" target="h-jJvfHTX61WG-e6yDjH-1" edge="1">
          <mxGeometry relative="1" as="geometry">
            <Array as="points">
              <mxPoint x="630" y="430" />
            </Array>
          </mxGeometry>
        </mxCell>
        <mxCell id="h-jJvfHTX61WG-e6yDjH-41" style="edgeStyle=orthogonalEdgeStyle;rounded=0;orthogonalLoop=1;jettySize=auto;html=1;endArrow=block;endFill=0;" parent="1" source="h-jJvfHTX61WG-e6yDjH-14" target="h-jJvfHTX61WG-e6yDjH-16" edge="1">
          <mxGeometry relative="1" as="geometry" />
        </mxCell>
        <mxCell id="h-jJvfHTX61WG-e6yDjH-14" value="&lt;p style=&quot;margin:0px;margin-top:4px;text-align:center;&quot;&gt;&lt;i&gt;&amp;lt;&amp;lt;protocol&amp;gt;&amp;gt;&lt;/i&gt;&lt;br&gt;&lt;/p&gt;&lt;p style=&quot;margin: 0px; font-variant-numeric: normal; font-variant-east-asian: normal; font-variant-alternates: normal; font-kerning: auto; font-optical-sizing: auto; font-feature-settings: normal; font-variation-settings: normal; font-stretch: normal; font-size: 13px; line-height: normal; font-family: &amp;quot;Helvetica Neue&amp;quot;;&quot; class=&quot;p1&quot;&gt;&amp;nbsp;PasswordLinkNavigationBuilderContainable&lt;/p&gt;&lt;hr size=&quot;1&quot;&gt;&lt;p style=&quot;margin:0px;margin-left:4px;&quot;&gt;+&amp;nbsp;passwordLinkEmailBuilder: PasswordLinkEmailBuildingLogic&lt;br&gt;&lt;/p&gt;&lt;hr size=&quot;1&quot;&gt;&lt;p style=&quot;margin:0px;margin-left:4px;&quot;&gt;&lt;br&gt;&lt;/p&gt;" style="verticalAlign=top;align=left;overflow=fill;fontSize=12;fontFamily=Helvetica;html=1;whiteSpace=wrap;" parent="1" vertex="1">
          <mxGeometry x="690" y="960" width="270" height="140" as="geometry" />
        </mxCell>
        <mxCell id="h-jJvfHTX61WG-e6yDjH-25" style="edgeStyle=orthogonalEdgeStyle;rounded=0;orthogonalLoop=1;jettySize=auto;html=1;entryX=-0.013;entryY=0.129;entryDx=0;entryDy=0;entryPerimeter=0;endArrow=block;endFill=0;exitX=0.5;exitY=0;exitDx=0;exitDy=0;" parent="1" source="h-jJvfHTX61WG-e6yDjH-15" target="h-jJvfHTX61WG-e6yDjH-1" edge="1">
          <mxGeometry relative="1" as="geometry">
            <Array as="points">
              <mxPoint x="-50" y="760" />
              <mxPoint x="-50" y="378" />
            </Array>
          </mxGeometry>
        </mxCell>
        <mxCell id="h-jJvfHTX61WG-e6yDjH-15" value="&lt;p style=&quot;margin:0px;margin-top:4px;text-align:center;&quot;&gt;&lt;i&gt;&amp;lt;&amp;lt;protocol&amp;gt;&amp;gt;&lt;/i&gt;&lt;br&gt;&lt;/p&gt;&lt;p style=&quot;margin: 0px; font-variant-numeric: normal; font-variant-east-asian: normal; font-variant-alternates: normal; font-kerning: auto; font-optical-sizing: auto; font-feature-settings: normal; font-variation-settings: normal; font-stretch: normal; font-size: 13px; line-height: normal; font-family: &amp;quot;Helvetica Neue&amp;quot;;&quot; class=&quot;p1&quot;&gt;&amp;nbsp;ResetPasswordNavigationBuilderContainable&lt;/p&gt;&lt;hr size=&quot;1&quot;&gt;&lt;p style=&quot;margin:0px;margin-left:4px;&quot;&gt;&lt;br&gt;&lt;/p&gt;&lt;hr size=&quot;1&quot;&gt;&lt;p style=&quot;margin:0px;margin-left:4px;&quot;&gt;&lt;br&gt;&lt;/p&gt;" style="verticalAlign=top;align=left;overflow=fill;fontSize=12;fontFamily=Helvetica;html=1;whiteSpace=wrap;" parent="1" vertex="1">
          <mxGeometry x="-190" y="760" width="290" height="140" as="geometry" />
        </mxCell>
        <mxCell id="h-jJvfHTX61WG-e6yDjH-42" style="edgeStyle=orthogonalEdgeStyle;rounded=0;orthogonalLoop=1;jettySize=auto;html=1;entryX=1;entryY=0.321;entryDx=0;entryDy=0;entryPerimeter=0;endArrow=block;endFill=0;" parent="1" source="h-jJvfHTX61WG-e6yDjH-16" target="h-jJvfHTX61WG-e6yDjH-1" edge="1">
          <mxGeometry relative="1" as="geometry">
            <Array as="points">
              <mxPoint x="830" y="405" />
            </Array>
          </mxGeometry>
        </mxCell>
        <mxCell id="h-jJvfHTX61WG-e6yDjH-16" value="&lt;p style=&quot;margin:0px;margin-top:4px;text-align:center;&quot;&gt;&lt;i&gt;&amp;lt;&amp;lt;protocol&amp;gt;&amp;gt;&lt;/i&gt;&lt;br&gt;&lt;/p&gt;&lt;p style=&quot;margin: 0px; font-variant-numeric: normal; font-variant-east-asian: normal; font-variant-alternates: normal; font-kerning: auto; font-optical-sizing: auto; font-feature-settings: normal; font-variation-settings: normal; font-stretch: normal; font-size: 13px; line-height: normal; font-family: &amp;quot;Helvetica Neue&amp;quot;;&quot; class=&quot;p1&quot;&gt;PasswordLinkEmailNavigationBuilderContainable&lt;/p&gt;&lt;hr size=&quot;1&quot;&gt;&lt;p style=&quot;margin:0px;margin-left:4px;&quot;&gt;+ Builder: BuildingLogic&lt;br&gt;&lt;/p&gt;&lt;hr size=&quot;1&quot;&gt;&lt;p style=&quot;margin:0px;margin-left:4px;&quot;&gt;&lt;br&gt;&lt;/p&gt;" style="verticalAlign=top;align=left;overflow=fill;fontSize=12;fontFamily=Helvetica;html=1;whiteSpace=wrap;" parent="1" vertex="1">
          <mxGeometry x="680" y="740" width="290" height="140" as="geometry" />
        </mxCell>
        <mxCell id="h-jJvfHTX61WG-e6yDjH-28" style="edgeStyle=orthogonalEdgeStyle;rounded=0;orthogonalLoop=1;jettySize=auto;html=1;entryX=1;entryY=0.164;entryDx=0;entryDy=0;entryPerimeter=0;endArrow=block;endFill=0;" parent="1" source="h-jJvfHTX61WG-e6yDjH-17" target="h-jJvfHTX61WG-e6yDjH-1" edge="1">
          <mxGeometry relative="1" as="geometry">
            <Array as="points">
              <mxPoint x="1465" y="700" />
              <mxPoint x="1210" y="700" />
              <mxPoint x="1210" y="383" />
            </Array>
          </mxGeometry>
        </mxCell>
        <mxCell id="h-jJvfHTX61WG-e6yDjH-17" value="&lt;p style=&quot;margin:0px;margin-top:4px;text-align:center;&quot;&gt;&lt;i&gt;&amp;lt;&amp;lt;protocol&amp;gt;&amp;gt;&lt;/i&gt;&lt;br&gt;&lt;/p&gt;&lt;p style=&quot;margin: 0px; font-variant-numeric: normal; font-variant-east-asian: normal; font-variant-alternates: normal; font-kerning: auto; font-optical-sizing: auto; font-feature-settings: normal; font-variation-settings: normal; font-stretch: normal; font-size: 13px; line-height: normal; font-family: &amp;quot;Helvetica Neue&amp;quot;;&quot; class=&quot;p1&quot;&gt;ThirdPartySignUpNavigationBuilderContainable&lt;/p&gt;&lt;hr size=&quot;1&quot;&gt;&lt;p style=&quot;margin:0px;margin-left:4px;&quot;&gt;+ Builder: BuildingLogic&lt;br&gt;&lt;/p&gt;&lt;hr size=&quot;1&quot;&gt;&lt;p style=&quot;margin:0px;margin-left:4px;&quot;&gt;&lt;br&gt;&lt;/p&gt;" style="verticalAlign=top;align=left;overflow=fill;fontSize=12;fontFamily=Helvetica;html=1;whiteSpace=wrap;" parent="1" vertex="1">
          <mxGeometry x="1320" y="750" width="290" height="140" as="geometry" />
        </mxCell>
        <mxCell id="h-jJvfHTX61WG-e6yDjH-30" style="edgeStyle=orthogonalEdgeStyle;rounded=0;orthogonalLoop=1;jettySize=auto;html=1;" parent="1" source="h-jJvfHTX61WG-e6yDjH-29" target="h-jJvfHTX61WG-e6yDjH-9" edge="1">
          <mxGeometry relative="1" as="geometry">
            <Array as="points">
              <mxPoint x="1250" y="120" />
            </Array>
          </mxGeometry>
        </mxCell>
        <mxCell id="h-jJvfHTX61WG-e6yDjH-33" style="edgeStyle=orthogonalEdgeStyle;rounded=0;orthogonalLoop=1;jettySize=auto;html=1;entryX=0.5;entryY=0;entryDx=0;entryDy=0;" parent="1" target="h-jJvfHTX61WG-e6yDjH-34" edge="1">
          <mxGeometry relative="1" as="geometry">
            <mxPoint x="1465" y="120" as="sourcePoint" />
            <mxPoint x="1535" y="260" as="targetPoint" />
            <Array as="points">
              <mxPoint x="1595" y="120" />
            </Array>
          </mxGeometry>
        </mxCell>
        <mxCell id="h-jJvfHTX61WG-e6yDjH-29" value="&lt;p style=&quot;margin:0px;margin-top:4px;text-align:center;&quot;&gt;&lt;br&gt;&lt;b&gt;SignInBuilder&lt;/b&gt;&lt;/p&gt;" style="verticalAlign=top;align=left;overflow=fill;fontSize=12;fontFamily=Helvetica;html=1;whiteSpace=wrap;" parent="1" vertex="1">
          <mxGeometry x="1320" y="90" width="140" height="60" as="geometry" />
        </mxCell>
        <mxCell id="h-jJvfHTX61WG-e6yDjH-32" style="edgeStyle=orthogonalEdgeStyle;rounded=0;orthogonalLoop=1;jettySize=auto;html=1;exitX=0.5;exitY=1;exitDx=0;exitDy=0;" parent="1" source="h-jJvfHTX61WG-e6yDjH-34" target="h-jJvfHTX61WG-e6yDjH-6" edge="1">
          <mxGeometry relative="1" as="geometry">
            <mxPoint x="1535" y="320" as="sourcePoint" />
            <Array as="points">
              <mxPoint x="1595" y="320" />
              <mxPoint x="1590" y="320" />
            </Array>
          </mxGeometry>
        </mxCell>
        <mxCell id="h-jJvfHTX61WG-e6yDjH-36" style="edgeStyle=orthogonalEdgeStyle;rounded=0;orthogonalLoop=1;jettySize=auto;html=1;entryX=0;entryY=0.5;entryDx=0;entryDy=0;" parent="1" source="h-jJvfHTX61WG-e6yDjH-34" target="h-jJvfHTX61WG-e6yDjH-35" edge="1">
          <mxGeometry relative="1" as="geometry">
            <mxPoint x="1705" y="305" as="targetPoint" />
          </mxGeometry>
        </mxCell>
        <mxCell id="h-jJvfHTX61WG-e6yDjH-34" value="&lt;p style=&quot;text-align: center; margin: 0px; font-variant-numeric: normal; font-variant-east-asian: normal; font-variant-alternates: normal; font-kerning: auto; font-optical-sizing: auto; font-feature-settings: normal; font-variation-settings: normal; font-stretch: normal; font-size: 13px; line-height: normal; font-family: &amp;quot;Helvetica Neue&amp;quot;;&quot; class=&quot;p1&quot;&gt;&lt;b&gt;SignInPresenter&lt;/b&gt;&lt;/p&gt;&lt;hr size=&quot;1&quot;&gt;&lt;p style=&quot;margin:0px;margin-left:4px;&quot;&gt;+ builderContainer: SignInNavigationBuilderContainable&lt;/p&gt;&lt;p style=&quot;margin:0px;margin-left:4px;&quot;&gt;+ @Published path: [ViewKind]&lt;/p&gt;&lt;hr size=&quot;1&quot;&gt;&lt;p style=&quot;margin:0px;margin-left:4px;&quot;&gt;&lt;br&gt;&lt;/p&gt;" style="verticalAlign=top;align=left;overflow=fill;fontSize=12;fontFamily=Helvetica;html=1;whiteSpace=wrap;" parent="1" vertex="1">
          <mxGeometry x="1475" y="250" width="240" height="90" as="geometry" />
        </mxCell>
        <mxCell id="h-jJvfHTX61WG-e6yDjH-38" style="edgeStyle=orthogonalEdgeStyle;rounded=0;orthogonalLoop=1;jettySize=auto;html=1;" parent="1" source="h-jJvfHTX61WG-e6yDjH-35" target="h-jJvfHTX61WG-e6yDjH-37" edge="1">
          <mxGeometry relative="1" as="geometry" />
        </mxCell>
        <mxCell id="h-jJvfHTX61WG-e6yDjH-35" value="&lt;p style=&quot;text-align: center; margin: 0px; font-variant-numeric: normal; font-variant-east-asian: normal; font-variant-alternates: normal; font-kerning: auto; font-optical-sizing: auto; font-feature-settings: normal; font-variation-settings: normal; font-stretch: normal; font-size: 13px; line-height: normal; font-family: &amp;quot;Helvetica Neue&amp;quot;;&quot; class=&quot;p1&quot;&gt;&lt;b&gt;SignInView&lt;/b&gt;&lt;/p&gt;&lt;hr style=&quot;text-align: center;&quot; size=&quot;1&quot;&gt;&lt;p style=&quot;margin:0px;margin-left:4px;&quot;&gt;&lt;br&gt;&lt;/p&gt;&lt;p style=&quot;margin:0px;margin-left:4px;&quot;&gt;&lt;br&gt;&lt;/p&gt;&lt;hr size=&quot;1&quot;&gt;&lt;p style=&quot;margin:0px;margin-left:4px;&quot;&gt;&lt;br&gt;&lt;/p&gt;" style="verticalAlign=top;align=left;overflow=fill;fontSize=12;fontFamily=Helvetica;html=1;whiteSpace=wrap;" parent="1" vertex="1">
          <mxGeometry x="1795" y="250" width="240" height="90" as="geometry" />
        </mxCell>
        <mxCell id="h-jJvfHTX61WG-e6yDjH-37" value="&lt;p style=&quot;text-align: center; margin: 0px; font-variant-numeric: normal; font-variant-east-asian: normal; font-variant-alternates: normal; font-kerning: auto; font-optical-sizing: auto; font-feature-settings: normal; font-variation-settings: normal; font-stretch: normal; font-size: 13px; line-height: normal; font-family: &amp;quot;Helvetica Neue&amp;quot;;&quot; class=&quot;p1&quot;&gt;&lt;b&gt;NavigationStack&amp;lt;Data, Root&amp;gt;&lt;/b&gt;&lt;/p&gt;&lt;hr style=&quot;text-align: center;&quot; size=&quot;1&quot;&gt;&lt;p style=&quot;margin:0px;margin-left:4px;&quot;&gt;+ path: Binding&amp;lt;Data&amp;gt;&amp;nbsp;&lt;/p&gt;&lt;hr size=&quot;1&quot;&gt;&lt;p style=&quot;margin:0px;margin-left:4px;&quot;&gt;&lt;br&gt;&lt;/p&gt;" style="verticalAlign=top;align=left;overflow=fill;fontSize=12;fontFamily=Helvetica;html=1;whiteSpace=wrap;" parent="1" vertex="1">
          <mxGeometry x="1795" y="500" width="240" height="90" as="geometry" />
        </mxCell>
        <mxCell id="vI79QU8obV0aJLRX0Krz-6" style="edgeStyle=orthogonalEdgeStyle;rounded=0;orthogonalLoop=1;jettySize=auto;html=1;entryX=1;entryY=0.75;entryDx=0;entryDy=0;" edge="1" parent="1" source="vI79QU8obV0aJLRX0Krz-1" target="h-jJvfHTX61WG-e6yDjH-1">
          <mxGeometry relative="1" as="geometry">
            <Array as="points">
              <mxPoint x="1050" y="465" />
            </Array>
          </mxGeometry>
        </mxCell>
        <mxCell id="vI79QU8obV0aJLRX0Krz-1" value="&lt;p style=&quot;margin:0px;margin-top:4px;text-align:center;&quot;&gt;&lt;i&gt;&amp;lt;&amp;lt;protocol&amp;gt;&amp;gt;&lt;/i&gt;&lt;br&gt;&lt;/p&gt;&lt;p style=&quot;margin: 0px; font-variant-numeric: normal; font-variant-east-asian: normal; font-variant-alternates: normal; font-kerning: auto; font-optical-sizing: auto; font-feature-settings: normal; font-variation-settings: normal; font-stretch: normal; font-size: 13px; line-height: normal; font-family: &amp;quot;Helvetica Neue&amp;quot;;&quot; class=&quot;p1&quot;&gt;EmailSignUpNavigationBuilderContainable&lt;/p&gt;&lt;hr size=&quot;1&quot;&gt;&lt;p style=&quot;margin:0px;margin-left:4px;&quot;&gt;+ Builder: BuildingLogic&lt;br&gt;&lt;/p&gt;&lt;hr size=&quot;1&quot;&gt;&lt;p style=&quot;margin:0px;margin-left:4px;&quot;&gt;&lt;br&gt;&lt;/p&gt;" style="verticalAlign=top;align=left;overflow=fill;fontSize=12;fontFamily=Helvetica;html=1;whiteSpace=wrap;fillColor=#0050ef;fontColor=#ffffff;strokeColor=#001DBC;" vertex="1" parent="1">
          <mxGeometry x="990" y="740" width="290" height="140" as="geometry" />
        </mxCell>
      </root>
    </mxGraphModel>
  </diagram>
  <diagram id="G-pLruhcZHnY0ZI7dKMA" name="sync token">
    <mxGraphModel dx="1242" dy="822" grid="1" gridSize="10" guides="1" tooltips="1" connect="1" arrows="1" fold="1" page="1" pageScale="1" pageWidth="827" pageHeight="1169" math="0" shadow="0">
      <root>
        <mxCell id="0" />
        <mxCell id="1" parent="0" />
        <mxCell id="T4Cq3jax0ggj9C1_1wp9-14" style="edgeStyle=orthogonalEdgeStyle;rounded=0;orthogonalLoop=1;jettySize=auto;html=1;entryX=0;entryY=0;entryDx=0;entryDy=52.5;entryPerimeter=0;" parent="1" source="T4Cq3jax0ggj9C1_1wp9-1" target="T4Cq3jax0ggj9C1_1wp9-3" edge="1">
          <mxGeometry relative="1" as="geometry" />
        </mxCell>
        <mxCell id="T4Cq3jax0ggj9C1_1wp9-15" value="3. 복사" style="edgeLabel;html=1;align=center;verticalAlign=middle;resizable=0;points=[];" parent="T4Cq3jax0ggj9C1_1wp9-14" vertex="1" connectable="0">
          <mxGeometry x="-0.3883" y="-1" relative="1" as="geometry">
            <mxPoint x="9" y="-1" as="offset" />
          </mxGeometry>
        </mxCell>
        <mxCell id="T4Cq3jax0ggj9C1_1wp9-1" value="HTTPCookieStorage" style="shape=cylinder3;whiteSpace=wrap;html=1;boundedLbl=1;backgroundOutline=1;size=15;" parent="1" vertex="1">
          <mxGeometry x="35" y="570" width="130" height="80" as="geometry" />
        </mxCell>
        <mxCell id="T4Cq3jax0ggj9C1_1wp9-2" value="API" style="ellipse;shape=cloud;whiteSpace=wrap;html=1;" parent="1" vertex="1">
          <mxGeometry y="310" width="200" height="130" as="geometry" />
        </mxCell>
        <mxCell id="T4Cq3jax0ggj9C1_1wp9-18" style="edgeStyle=orthogonalEdgeStyle;rounded=0;orthogonalLoop=1;jettySize=auto;html=1;" parent="1" source="T4Cq3jax0ggj9C1_1wp9-3" edge="1">
          <mxGeometry relative="1" as="geometry">
            <mxPoint x="520" y="490" as="targetPoint" />
            <Array as="points">
              <mxPoint x="520" y="597" />
              <mxPoint x="520" y="490" />
            </Array>
          </mxGeometry>
        </mxCell>
        <mxCell id="T4Cq3jax0ggj9C1_1wp9-19" value="4. 전달" style="edgeLabel;html=1;align=center;verticalAlign=middle;resizable=0;points=[];" parent="T4Cq3jax0ggj9C1_1wp9-18" vertex="1" connectable="0">
          <mxGeometry x="-0.2495" relative="1" as="geometry">
            <mxPoint x="-26" as="offset" />
          </mxGeometry>
        </mxCell>
        <mxCell id="T4Cq3jax0ggj9C1_1wp9-3" value="WKWebsiteDataStore" style="shape=cylinder3;whiteSpace=wrap;html=1;boundedLbl=1;backgroundOutline=1;size=15;" parent="1" vertex="1">
          <mxGeometry x="250" y="557" width="200" height="80" as="geometry" />
        </mxCell>
        <mxCell id="T4Cq3jax0ggj9C1_1wp9-13" value="2. open" style="edgeStyle=orthogonalEdgeStyle;rounded=0;orthogonalLoop=1;jettySize=auto;html=1;exitX=1.013;exitY=0.475;exitDx=0;exitDy=0;exitPerimeter=0;" parent="1" source="T4Cq3jax0ggj9C1_1wp9-4" edge="1">
          <mxGeometry x="-0.0044" relative="1" as="geometry">
            <mxPoint x="450" y="409.6" as="targetPoint" />
            <mxPoint x="360" y="409.6" as="sourcePoint" />
            <mxPoint as="offset" />
          </mxGeometry>
        </mxCell>
        <mxCell id="T4Cq3jax0ggj9C1_1wp9-4" value="" style="verticalLabelPosition=bottom;verticalAlign=top;html=1;shadow=0;dashed=0;strokeWidth=1;shape=mxgraph.android.phone2;strokeColor=#c0c0c0;" parent="1" vertex="1">
          <mxGeometry x="260" y="330" width="90" height="160" as="geometry" />
        </mxCell>
        <mxCell id="T4Cq3jax0ggj9C1_1wp9-8" value="WebView" style="swimlane;whiteSpace=wrap;html=1;" parent="1" vertex="1">
          <mxGeometry x="450" y="335" width="100" height="150" as="geometry" />
        </mxCell>
        <mxCell id="T4Cq3jax0ggj9C1_1wp9-22" value="iOS" style="text;html=1;strokeColor=none;fillColor=none;align=center;verticalAlign=middle;whiteSpace=wrap;rounded=0;" parent="1" vertex="1">
          <mxGeometry x="265" y="350" width="60" height="30" as="geometry" />
        </mxCell>
        <mxCell id="T4Cq3jax0ggj9C1_1wp9-25" style="edgeStyle=orthogonalEdgeStyle;rounded=0;orthogonalLoop=1;jettySize=auto;html=1;" parent="1" source="T4Cq3jax0ggj9C1_1wp9-9" target="T4Cq3jax0ggj9C1_1wp9-1" edge="1">
          <mxGeometry relative="1" as="geometry" />
        </mxCell>
        <mxCell id="T4Cq3jax0ggj9C1_1wp9-26" value="1. 저장" style="edgeLabel;html=1;align=center;verticalAlign=middle;resizable=0;points=[];" parent="T4Cq3jax0ggj9C1_1wp9-25" vertex="1" connectable="0">
          <mxGeometry x="0.0523" y="-2" relative="1" as="geometry">
            <mxPoint as="offset" />
          </mxGeometry>
        </mxCell>
        <mxCell id="T4Cq3jax0ggj9C1_1wp9-9" value="" style="shape=image;html=1;verticalAlign=top;verticalLabelPosition=bottom;labelBackgroundColor=#ffffff;imageAspect=0;aspect=fixed;image=https://cdn1.iconfinder.com/data/icons/cartoon-snack/128/biscuit-128.png" parent="1" vertex="1">
          <mxGeometry x="70" y="380" width="60" height="60" as="geometry" />
        </mxCell>
      </root>
    </mxGraphModel>
  </diagram>
  <diagram id="2AExzzwJCr03dC0MKQVC" name="로그인">
    <mxGraphModel dx="1242" dy="822" grid="1" gridSize="10" guides="1" tooltips="1" connect="1" arrows="1" fold="1" page="1" pageScale="1" pageWidth="827" pageHeight="1169" math="0" shadow="0">
      <root>
        <mxCell id="0" />
        <mxCell id="1" parent="0" />
        <mxCell id="T4kCXRY-dh_gCEJvznJF-1" value="" style="ellipse;html=1;shape=startState;fillColor=#000000;strokeColor=#ff0000;" vertex="1" parent="1">
          <mxGeometry x="410" y="380" width="30" height="30" as="geometry" />
        </mxCell>
        <mxCell id="T4kCXRY-dh_gCEJvznJF-2" value="" style="edgeStyle=orthogonalEdgeStyle;html=1;verticalAlign=bottom;endArrow=open;endSize=8;strokeColor=#ff0000;rounded=0;entryX=0.5;entryY=0;entryDx=0;entryDy=0;" edge="1" source="T4kCXRY-dh_gCEJvznJF-1" parent="1" target="T4kCXRY-dh_gCEJvznJF-3">
          <mxGeometry relative="1" as="geometry">
            <mxPoint x="425" y="470" as="targetPoint" />
          </mxGeometry>
        </mxCell>
        <mxCell id="T4kCXRY-dh_gCEJvznJF-3" value="국가==KR" style="rhombus;whiteSpace=wrap;html=1;fontColor=#000000;fillColor=#ffffc0;strokeColor=#ff0000;" vertex="1" parent="1">
          <mxGeometry x="385" y="475" width="80" height="40" as="geometry" />
        </mxCell>
        <mxCell id="T4kCXRY-dh_gCEJvznJF-4" value="no" style="edgeStyle=orthogonalEdgeStyle;html=1;align=left;verticalAlign=bottom;endArrow=open;endSize=8;strokeColor=#ff0000;rounded=0;" edge="1" source="T4kCXRY-dh_gCEJvznJF-3" parent="1">
          <mxGeometry x="-1" relative="1" as="geometry">
            <mxPoint x="490" y="920" as="targetPoint" />
            <Array as="points">
              <mxPoint x="610" y="495" />
              <mxPoint x="610" y="920" />
            </Array>
            <mxPoint as="offset" />
          </mxGeometry>
        </mxCell>
        <mxCell id="T4kCXRY-dh_gCEJvznJF-5" value="yes" style="edgeStyle=orthogonalEdgeStyle;html=1;align=left;verticalAlign=top;endArrow=open;endSize=8;strokeColor=#ff0000;rounded=0;entryX=0.5;entryY=0;entryDx=0;entryDy=0;" edge="1" parent="1" target="T4kCXRY-dh_gCEJvznJF-10">
          <mxGeometry x="-1" relative="1" as="geometry">
            <mxPoint x="425" y="574" as="targetPoint" />
            <mxPoint x="425" y="515" as="sourcePoint" />
            <mxPoint as="offset" />
          </mxGeometry>
        </mxCell>
        <mxCell id="T4kCXRY-dh_gCEJvznJF-10" value="워크쓰루 노출 필요&amp;nbsp;" style="rhombus;whiteSpace=wrap;html=1;fontColor=#000000;fillColor=#ffffc0;strokeColor=#ff0000;" vertex="1" parent="1">
          <mxGeometry x="350" y="585" width="150" height="40" as="geometry" />
        </mxCell>
        <mxCell id="T4kCXRY-dh_gCEJvznJF-11" value="no" style="edgeStyle=orthogonalEdgeStyle;html=1;align=left;verticalAlign=bottom;endArrow=open;endSize=8;strokeColor=#ff0000;rounded=0;entryX=0.892;entryY=0.025;entryDx=0;entryDy=0;entryPerimeter=0;" edge="1" source="T4kCXRY-dh_gCEJvznJF-10" parent="1" target="T4kCXRY-dh_gCEJvznJF-18">
          <mxGeometry x="-1" relative="1" as="geometry">
            <mxPoint x="664" y="694" as="targetPoint" />
            <Array as="points">
              <mxPoint x="550" y="600" />
              <mxPoint x="550" y="891" />
            </Array>
          </mxGeometry>
        </mxCell>
        <mxCell id="T4kCXRY-dh_gCEJvznJF-12" value="yes" style="edgeStyle=orthogonalEdgeStyle;html=1;align=left;verticalAlign=top;endArrow=open;endSize=8;strokeColor=#ff0000;rounded=0;entryX=0.5;entryY=0;entryDx=0;entryDy=0;" edge="1" parent="1" target="T4kCXRY-dh_gCEJvznJF-13">
          <mxGeometry x="-1" relative="1" as="geometry">
            <mxPoint x="426" y="775" as="targetPoint" />
            <mxPoint x="426" y="630" as="sourcePoint" />
            <mxPoint as="offset" />
          </mxGeometry>
        </mxCell>
        <mxCell id="T4kCXRY-dh_gCEJvznJF-53" style="edgeStyle=orthogonalEdgeStyle;rounded=0;orthogonalLoop=1;jettySize=auto;html=1;entryX=0.5;entryY=0;entryDx=0;entryDy=0;" edge="1" parent="1" source="T4kCXRY-dh_gCEJvznJF-13" target="T4kCXRY-dh_gCEJvznJF-40">
          <mxGeometry relative="1" as="geometry" />
        </mxCell>
        <mxCell id="T4kCXRY-dh_gCEJvznJF-13" value="워크쓰루 표시" style="rounded=1;whiteSpace=wrap;html=1;arcSize=40;fontColor=#000000;fillColor=#ffffc0;strokeColor=#ff0000;" vertex="1" parent="1">
          <mxGeometry x="365" y="680" width="120" height="40" as="geometry" />
        </mxCell>
        <mxCell id="T4kCXRY-dh_gCEJvznJF-14" value="" style="edgeStyle=orthogonalEdgeStyle;html=1;verticalAlign=bottom;endArrow=open;endSize=8;strokeColor=#ff0000;rounded=0;dashed=1;entryX=0.5;entryY=0;entryDx=0;entryDy=0;exitX=0.5;exitY=1;exitDx=0;exitDy=0;" edge="1" source="T4kCXRY-dh_gCEJvznJF-40" parent="1" target="T4kCXRY-dh_gCEJvznJF-18">
          <mxGeometry relative="1" as="geometry">
            <mxPoint x="426" y="875" as="targetPoint" />
            <mxPoint x="430" y="830" as="sourcePoint" />
          </mxGeometry>
        </mxCell>
        <mxCell id="T4kCXRY-dh_gCEJvznJF-39" value="로그인 버튼 이벤트" style="edgeLabel;html=1;align=center;verticalAlign=middle;resizable=0;points=[];" vertex="1" connectable="0" parent="T4kCXRY-dh_gCEJvznJF-14">
          <mxGeometry x="-0.0414" relative="1" as="geometry">
            <mxPoint as="offset" />
          </mxGeometry>
        </mxCell>
        <mxCell id="T4kCXRY-dh_gCEJvznJF-18" value="로그인/회원가입 표시" style="rounded=1;whiteSpace=wrap;html=1;arcSize=40;fontColor=#000000;fillColor=#ffffc0;strokeColor=#ff0000;" vertex="1" parent="1">
          <mxGeometry x="366" y="890" width="120" height="40" as="geometry" />
        </mxCell>
        <mxCell id="T4kCXRY-dh_gCEJvznJF-19" value="" style="edgeStyle=orthogonalEdgeStyle;html=1;verticalAlign=bottom;endArrow=open;endSize=8;strokeColor=#ff0000;rounded=0;" edge="1" source="T4kCXRY-dh_gCEJvznJF-18" parent="1">
          <mxGeometry relative="1" as="geometry">
            <mxPoint x="420" y="1070" as="targetPoint" />
          </mxGeometry>
        </mxCell>
        <mxCell id="T4kCXRY-dh_gCEJvznJF-20" value="딥링크 화면 표시" style="rounded=1;whiteSpace=wrap;html=1;arcSize=40;fontColor=#000000;fillColor=#ffffc0;strokeColor=#ff0000;" vertex="1" parent="1">
          <mxGeometry x="366" y="1470" width="120" height="40" as="geometry" />
        </mxCell>
        <mxCell id="T4kCXRY-dh_gCEJvznJF-21" value="" style="edgeStyle=orthogonalEdgeStyle;html=1;verticalAlign=bottom;endArrow=open;endSize=8;strokeColor=#ff0000;rounded=0;dashed=1;entryX=0.5;entryY=1;entryDx=0;entryDy=0;" edge="1" source="T4kCXRY-dh_gCEJvznJF-20" parent="1" target="T4kCXRY-dh_gCEJvznJF-37">
          <mxGeometry relative="1" as="geometry">
            <mxPoint x="426" y="1570" as="targetPoint" />
          </mxGeometry>
        </mxCell>
        <mxCell id="T4kCXRY-dh_gCEJvznJF-50" value="딥링크 화면 종료" style="edgeLabel;html=1;align=center;verticalAlign=middle;resizable=0;points=[];" vertex="1" connectable="0" parent="T4kCXRY-dh_gCEJvznJF-21">
          <mxGeometry x="-0.0414" y="1" relative="1" as="geometry">
            <mxPoint as="offset" />
          </mxGeometry>
        </mxCell>
        <mxCell id="T4kCXRY-dh_gCEJvznJF-22" value="온보딩 화면 표시" style="rounded=1;whiteSpace=wrap;html=1;arcSize=40;fontColor=#000000;fillColor=#ffffc0;strokeColor=#ff0000;" vertex="1" parent="1">
          <mxGeometry x="360" y="1270" width="120" height="40" as="geometry" />
        </mxCell>
        <mxCell id="T4kCXRY-dh_gCEJvznJF-23" value="" style="edgeStyle=orthogonalEdgeStyle;html=1;verticalAlign=bottom;endArrow=open;endSize=8;strokeColor=#ff0000;rounded=0;dashed=1;" edge="1" source="T4kCXRY-dh_gCEJvznJF-22" parent="1">
          <mxGeometry relative="1" as="geometry">
            <mxPoint x="420" y="1370" as="targetPoint" />
            <Array as="points">
              <mxPoint x="420" y="1340" />
              <mxPoint x="421" y="1340" />
            </Array>
          </mxGeometry>
        </mxCell>
        <mxCell id="T4kCXRY-dh_gCEJvznJF-45" value="온보딩 종료" style="edgeLabel;html=1;align=center;verticalAlign=middle;resizable=0;points=[];" vertex="1" connectable="0" parent="T4kCXRY-dh_gCEJvznJF-23">
          <mxGeometry x="0.0735" y="2" relative="1" as="geometry">
            <mxPoint as="offset" />
          </mxGeometry>
        </mxCell>
        <mxCell id="T4kCXRY-dh_gCEJvznJF-24" value="회원가입" style="rhombus;whiteSpace=wrap;html=1;fontColor=#000000;fillColor=#ffffc0;strokeColor=#ff0000;" vertex="1" parent="1">
          <mxGeometry x="380" y="1172" width="80" height="40" as="geometry" />
        </mxCell>
        <mxCell id="T4kCXRY-dh_gCEJvznJF-25" value="no" style="edgeStyle=orthogonalEdgeStyle;html=1;align=left;verticalAlign=bottom;endArrow=open;endSize=8;strokeColor=#ff0000;rounded=0;" edge="1" source="T4kCXRY-dh_gCEJvznJF-24" parent="1" target="T4kCXRY-dh_gCEJvznJF-46">
          <mxGeometry x="-1" relative="1" as="geometry">
            <mxPoint x="560" y="1189" as="targetPoint" />
            <Array as="points">
              <mxPoint x="610" y="1192" />
              <mxPoint x="610" y="1370" />
            </Array>
          </mxGeometry>
        </mxCell>
        <mxCell id="T4kCXRY-dh_gCEJvznJF-26" value="yes" style="edgeStyle=orthogonalEdgeStyle;html=1;align=left;verticalAlign=top;endArrow=open;endSize=8;strokeColor=#ff0000;rounded=0;" edge="1" source="T4kCXRY-dh_gCEJvznJF-24" parent="1">
          <mxGeometry x="-0.3389" relative="1" as="geometry">
            <mxPoint x="420" y="1269" as="targetPoint" />
            <mxPoint as="offset" />
          </mxGeometry>
        </mxCell>
        <mxCell id="T4kCXRY-dh_gCEJvznJF-27" value="로그인 성공" style="rhombus;whiteSpace=wrap;html=1;fontColor=#000000;fillColor=#ffffc0;strokeColor=#ff0000;" vertex="1" parent="1">
          <mxGeometry x="380" y="1069" width="80" height="40" as="geometry" />
        </mxCell>
        <mxCell id="T4kCXRY-dh_gCEJvznJF-28" value="no" style="edgeStyle=orthogonalEdgeStyle;html=1;align=left;verticalAlign=bottom;endArrow=open;endSize=8;strokeColor=#ff0000;rounded=0;entryX=0;entryY=0;entryDx=0;entryDy=0;" edge="1" source="T4kCXRY-dh_gCEJvznJF-27" parent="1" target="T4kCXRY-dh_gCEJvznJF-37">
          <mxGeometry x="-1" relative="1" as="geometry">
            <mxPoint x="560" y="1089" as="targetPoint" />
          </mxGeometry>
        </mxCell>
        <mxCell id="T4kCXRY-dh_gCEJvznJF-29" value="yes" style="edgeStyle=orthogonalEdgeStyle;html=1;align=left;verticalAlign=top;endArrow=open;endSize=8;strokeColor=#ff0000;rounded=0;entryX=0.5;entryY=0.2;entryDx=0;entryDy=0;entryPerimeter=0;" edge="1" source="T4kCXRY-dh_gCEJvznJF-27" parent="1" target="T4kCXRY-dh_gCEJvznJF-24">
          <mxGeometry x="-0.3058" relative="1" as="geometry">
            <mxPoint x="420" y="1169" as="targetPoint" />
            <mxPoint as="offset" />
          </mxGeometry>
        </mxCell>
        <mxCell id="T4kCXRY-dh_gCEJvznJF-34" value="딥링크 O" style="rhombus;whiteSpace=wrap;html=1;fontColor=#000000;fillColor=#ffffc0;strokeColor=#ff0000;" vertex="1" parent="1">
          <mxGeometry x="560" y="980" width="80" height="40" as="geometry" />
        </mxCell>
        <mxCell id="T4kCXRY-dh_gCEJvznJF-35" value="no" style="edgeStyle=orthogonalEdgeStyle;html=1;align=left;verticalAlign=bottom;endArrow=open;endSize=8;strokeColor=#ff0000;rounded=0;entryX=0.5;entryY=0;entryDx=0;entryDy=0;" edge="1" source="T4kCXRY-dh_gCEJvznJF-34" parent="1" target="T4kCXRY-dh_gCEJvznJF-37">
          <mxGeometry x="-1" relative="1" as="geometry">
            <mxPoint x="740" y="1000" as="targetPoint" />
          </mxGeometry>
        </mxCell>
        <mxCell id="T4kCXRY-dh_gCEJvznJF-36" value="yes" style="edgeStyle=orthogonalEdgeStyle;html=1;align=left;verticalAlign=top;endArrow=open;endSize=8;strokeColor=#ff0000;rounded=0;entryX=0.75;entryY=1;entryDx=0;entryDy=0;" edge="1" source="T4kCXRY-dh_gCEJvznJF-34" parent="1" target="T4kCXRY-dh_gCEJvznJF-18">
          <mxGeometry x="-1" relative="1" as="geometry">
            <mxPoint x="600" y="1080" as="targetPoint" />
          </mxGeometry>
        </mxCell>
        <mxCell id="T4kCXRY-dh_gCEJvznJF-37" value="" style="ellipse;html=1;shape=endState;fillColor=#000000;strokeColor=#ff0000;" vertex="1" parent="1">
          <mxGeometry x="1000" y="1130" width="30" height="30" as="geometry" />
        </mxCell>
        <mxCell id="T4kCXRY-dh_gCEJvznJF-38" value="닫기 버튼 이벤트" style="endArrow=open;endSize=12;dashed=1;html=1;rounded=0;entryX=0.5;entryY=0;entryDx=0;entryDy=0;exitX=0.942;exitY=0.925;exitDx=0;exitDy=0;exitPerimeter=0;" edge="1" parent="1" source="T4kCXRY-dh_gCEJvznJF-40" target="T4kCXRY-dh_gCEJvznJF-34">
          <mxGeometry width="160" relative="1" as="geometry">
            <mxPoint x="510" y="820" as="sourcePoint" />
            <mxPoint x="590" y="860" as="targetPoint" />
          </mxGeometry>
        </mxCell>
        <mxCell id="T4kCXRY-dh_gCEJvznJF-40" value="워크쓰루 노출 필요 = no" style="rounded=1;whiteSpace=wrap;html=1;arcSize=40;fontColor=#000000;fillColor=#ffffc0;strokeColor=#ff0000;" vertex="1" parent="1">
          <mxGeometry x="370" y="756" width="120" height="40" as="geometry" />
        </mxCell>
        <mxCell id="T4kCXRY-dh_gCEJvznJF-46" value="딥링크 O" style="rhombus;whiteSpace=wrap;html=1;fontColor=#000000;fillColor=#ffffc0;strokeColor=#ff0000;" vertex="1" parent="1">
          <mxGeometry x="385" y="1370" width="80" height="40" as="geometry" />
        </mxCell>
        <mxCell id="T4kCXRY-dh_gCEJvznJF-47" value="no" style="edgeStyle=orthogonalEdgeStyle;html=1;align=left;verticalAlign=bottom;endArrow=open;endSize=8;strokeColor=#ff0000;rounded=0;entryX=0;entryY=1;entryDx=0;entryDy=0;" edge="1" source="T4kCXRY-dh_gCEJvznJF-46" parent="1" target="T4kCXRY-dh_gCEJvznJF-37">
          <mxGeometry x="-1" relative="1" as="geometry">
            <mxPoint x="565" y="1390" as="targetPoint" />
          </mxGeometry>
        </mxCell>
        <mxCell id="T4kCXRY-dh_gCEJvznJF-48" value="yes" style="edgeStyle=orthogonalEdgeStyle;html=1;align=left;verticalAlign=top;endArrow=open;endSize=8;strokeColor=#ff0000;rounded=0;" edge="1" source="T4kCXRY-dh_gCEJvznJF-46" parent="1">
          <mxGeometry x="-1" relative="1" as="geometry">
            <mxPoint x="425" y="1470" as="targetPoint" />
          </mxGeometry>
        </mxCell>
      </root>
    </mxGraphModel>
  </diagram>
</mxfile>
